<svg id="Layer_1" data-name="Layer 1" xmlns="http://www.w3.org/2000/svg" viewBox="0 0 207.93 68.25"><defs><style>.cls-1{fill:#1c164e;}.cls-1,.cls-2,.cls-3,.cls-4{fill-rule:evenodd;}.cls-2{fill:#535aa7;}.cls-3{fill:#347798;}.cls-4{fill:#294a76;}</style></defs><title>logo-mark</title><path class="cls-1" d="M243,228.56V219H216.21a32.15,32.15,0,0,0-11,1.67,22.83,22.83,0,0,0-4.09,2,17.42,17.42,0,0,0-3.21,2.59,16.94,16.94,0,0,0-2.42,3.17,18,18,0,0,0-1.65,3.71,29.45,29.45,0,0,0-1.29,9V284h9.55V257.41h40.49v-9H202.08V241a16.53,16.53,0,0,1,.18-2.45,15.12,15.12,0,0,1,.52-2.3,9.62,9.62,0,0,1,2.52-4,10.41,10.41,0,0,1,2.09-1.55,14.25,14.25,0,0,1,2.61-1.14,22.2,22.2,0,0,1,7-1ZM268.64,284V219h-9.56v65Zm76-57q-7.47-8-21.73-8H313.8a36.12,36.12,0,0,0-12.62,2,23.54,23.54,0,0,0-9.12,6q-7.51,8.06-7.51,24.63t7.5,24.42a23.49,23.49,0,0,0,9.13,5.92,36.62,36.62,0,0,0,12.62,2H323a36.62,36.62,0,0,0,12.62-2,23.38,23.38,0,0,0,9.12-5.92,25.06,25.06,0,0,0,5.61-10,48.86,48.86,0,0,0,1.9-14.43,49.52,49.52,0,0,0-1.9-14.53,25.6,25.6,0,0,0-5.62-10.1ZM305,229.92a25.85,25.85,0,0,1,8.79-1.36H323a25.71,25.71,0,0,1,8.78,1.36,14.49,14.49,0,0,1,6.18,4.2,18.09,18.09,0,0,1,3.5,7.2,46.14,46.14,0,0,1,0,20.43,17.76,17.76,0,0,1-3.55,7.16q-4.75,5.5-14.9,5.51H313.8a26.59,26.59,0,0,1-8.85-1.33,14.41,14.41,0,0,1-6.2-4.12,17.66,17.66,0,0,1-3.51-7.13,40.18,40.18,0,0,1-1.14-10.2q0-12,4.69-17.52A14.62,14.62,0,0,1,305,229.92Z" transform="translate(-144.27 -217.75)"/><path class="cls-2" d="M160.57,261.78v22.75c0,1.22-.76,1.79-1.7,1.28L146,278.76a3.9,3.9,0,0,1-1.7-3.14V253.35a3.7,3.7,0,0,0,.59.38Z" transform="translate(-144.27 -217.75)"/><path class="cls-1" d="M145.7,250.86l25.88-13.27a3.05,3.05,0,0,0,1.42-2.51V219c0-1-.64-1.46-1.42-1.06l-23.85,12.23c-2.45,1.32-3.6,1.94-3.45,4.73v15C144.28,250.78,144.92,251.26,145.7,250.86Z" transform="translate(-144.27 -217.75)"/><path class="cls-3" d="M145.7,232.4l25.88,13.27a3.06,3.06,0,0,1,1.42,2.52v16.12c0,1-.64,1.46-1.42,1.06L145.7,252.1a3.05,3.05,0,0,1-1.42-2.51V233.46C144.28,232.48,144.92,232,145.7,232.4Z" transform="translate(-144.27 -217.75)"/><path class="cls-4" d="M145.7,250.86l18-9.23-18-9.23a.91.91,0,0,0-1,0,3.58,3.58,0,0,0-.41,1.53v15.64a2.91,2.91,0,0,0,.21,1A.86.86,0,0,0,145.7,250.86Z" transform="translate(-144.27 -217.75)"/></svg>